<svg width="276" height="276" viewBox="0 0 276 276" fill="none" xmlns="http://www.w3.org/2000/svg">
<rect width="276" height="276" rx="15" fill="white"/>
<path d="M47.816 136H46.472V124.8H55.608V136H54.264V126.08H47.816V136ZM58.7783 135.12C57.9676 134.395 57.5623 133.408 57.5623 132.16C57.5623 130.912 57.9676 129.931 58.7783 129.216C59.5889 128.491 60.5489 128.128 61.6583 128.128C62.7783 128.128 63.7383 128.491 64.5383 129.216C65.3489 129.931 65.7543 130.912 65.7543 132.16C65.7543 133.408 65.3489 134.395 64.5383 135.12C63.7383 135.835 62.7783 136.192 61.6583 136.192C60.5489 136.192 59.5889 135.835 58.7783 135.12ZM63.6743 134.224C64.2076 133.712 64.4743 133.024 64.4743 132.16C64.4743 131.296 64.2076 130.613 63.6743 130.112C63.1409 129.6 62.4689 129.344 61.6583 129.344C60.8476 129.344 60.1756 129.6 59.6423 130.112C59.1089 130.613 58.8423 131.296 58.8423 132.16C58.8423 133.024 59.1089 133.712 59.6423 134.224C60.1756 134.725 60.8476 134.976 61.6583 134.976C62.4689 134.976 63.1409 134.725 63.6743 134.224ZM71.9263 136H67.5903V128.32H71.7983C72.4916 128.32 73.0569 128.501 73.4943 128.864C73.9423 129.227 74.1663 129.739 74.1663 130.4C74.1663 130.784 74.0703 131.131 73.8783 131.44C73.6863 131.749 73.4409 131.968 73.1423 132.096C73.4943 132.213 73.7929 132.427 74.0383 132.736C74.2836 133.045 74.4062 133.424 74.4062 133.872C74.4062 134.523 74.1929 135.04 73.7663 135.424C73.3503 135.808 72.7369 136 71.9263 136ZM68.8703 132.672V134.88H71.7503C72.6676 134.88 73.1263 134.517 73.1263 133.792C73.1263 133.045 72.6836 132.672 71.7983 132.672H68.8703ZM68.8703 129.44V131.568H71.6703C72.4703 131.568 72.8703 131.221 72.8703 130.528C72.8703 130.133 72.7529 129.856 72.5183 129.696C72.2836 129.525 72.0009 129.44 71.6703 129.44H68.8703ZM75.8279 132.192C75.8279 131.52 75.9505 130.917 76.1959 130.384C76.4412 129.851 76.7612 129.424 77.1559 129.104C77.5612 128.784 78.0039 128.544 78.4839 128.384C78.9745 128.213 79.4759 128.128 79.9879 128.128C80.9372 128.128 81.7265 128.336 82.3559 128.752V130C81.7692 129.541 81.0332 129.312 80.1479 129.312C79.3159 129.312 78.6012 129.552 78.0039 130.032C77.4065 130.512 77.1079 131.221 77.1079 132.16C77.1079 133.088 77.4012 133.797 77.9879 134.288C78.5852 134.768 79.2945 135.008 80.1159 135.008C80.9692 135.008 81.7425 134.8 82.4359 134.384V135.664C81.7105 136.016 80.8785 136.192 79.9399 136.192C78.8305 136.192 77.8652 135.845 77.0439 135.152C76.2332 134.459 75.8279 133.472 75.8279 132.192ZM83.6404 132.16C83.6404 130.901 84.0244 129.915 84.7924 129.2C85.571 128.485 86.4617 128.128 87.4644 128.128C88.403 128.128 89.1764 128.363 89.7844 128.832C90.403 129.301 90.8084 129.883 91.0004 130.576C91.1924 131.259 91.203 131.973 91.0324 132.72H84.9204C84.995 133.477 85.331 134.048 85.9284 134.432C86.5257 134.816 87.2457 135.008 88.0884 135.008C89.027 135.008 89.8697 134.8 90.6164 134.384V135.632C89.9017 136.005 88.995 136.192 87.8964 136.192C86.6804 136.192 85.667 135.845 84.8564 135.152C84.0457 134.459 83.6404 133.461 83.6404 132.16ZM89.8964 131.6C89.9284 131.376 89.9124 131.141 89.8484 130.896C89.7844 130.651 89.667 130.405 89.4964 130.16C89.3364 129.915 89.0857 129.712 88.7444 129.552C88.403 129.392 88.003 129.312 87.5444 129.312C86.851 129.312 86.2484 129.515 85.7364 129.92C85.235 130.325 84.963 130.885 84.9204 131.6H89.8964ZM93.2578 138.08H92.0098V134.848H93.0338C93.9404 133.248 94.3778 131.072 94.3458 128.32H100.074V134.848H101.194V138.08H99.9458V136H93.2578V138.08ZM95.5778 129.472C95.5244 131.573 95.1404 133.365 94.4258 134.848H98.7938V129.472H95.5778ZM104.183 136H102.903V128.32H104.183V131.568H108.631V128.32H109.911V136H108.631V132.752H104.183V136ZM111.75 132.16C111.75 130.901 112.134 129.915 112.902 129.2C113.68 128.485 114.571 128.128 115.574 128.128C116.512 128.128 117.286 128.363 117.894 128.832C118.512 129.301 118.918 129.883 119.11 130.576C119.302 131.259 119.312 131.973 119.142 132.72H113.03C113.104 133.477 113.44 134.048 114.038 134.432C114.635 134.816 115.355 135.008 116.198 135.008C117.136 135.008 117.979 134.8 118.726 134.384V135.632C118.011 136.005 117.104 136.192 116.006 136.192C114.79 136.192 113.776 135.845 112.966 135.152C112.155 134.459 111.75 133.461 111.75 132.16ZM118.006 131.6C118.038 131.376 118.022 131.141 117.958 130.896C117.894 130.651 117.776 130.405 117.606 130.16C117.446 129.915 117.195 129.712 116.854 129.552C116.512 129.392 116.112 129.312 115.654 129.312C114.96 129.312 114.358 129.515 113.846 129.92C113.344 130.325 113.072 130.885 113.03 131.6H118.006ZM125.348 136H121.012V128.32H125.22C125.913 128.32 126.479 128.501 126.916 128.864C127.364 129.227 127.588 129.739 127.588 130.4C127.588 130.784 127.492 131.131 127.3 131.44C127.108 131.749 126.863 131.968 126.564 132.096C126.916 132.213 127.215 132.427 127.46 132.736C127.705 133.045 127.828 133.424 127.828 133.872C127.828 134.523 127.615 135.04 127.188 135.424C126.772 135.808 126.159 136 125.348 136ZM122.292 132.672V134.88H125.172C126.089 134.88 126.548 134.517 126.548 133.792C126.548 133.045 126.105 132.672 125.22 132.672H122.292ZM122.292 129.44V131.568H125.092C125.892 131.568 126.292 131.221 126.292 130.528C126.292 130.133 126.175 129.856 125.94 129.696C125.705 129.525 125.423 129.44 125.092 129.44H122.292ZM131.058 136H129.778V128.32H131.058V131.568H135.506V128.32H136.786V136H135.506V132.752H131.058V136ZM145.393 134.4C145.393 134.795 145.59 134.992 145.985 134.992C146.155 134.992 146.353 134.955 146.577 134.88V135.92C146.257 136.037 145.937 136.096 145.617 136.096C144.881 136.096 144.411 135.787 144.209 135.168C143.387 135.851 142.39 136.192 141.217 136.192C140.47 136.192 139.83 135.995 139.297 135.6C138.774 135.195 138.513 134.613 138.513 133.856C138.513 132.949 138.849 132.293 139.521 131.888C140.203 131.472 141.025 131.264 141.985 131.264C142.689 131.264 143.398 131.344 144.113 131.504V131.232C144.113 130.645 143.921 130.181 143.537 129.84C143.153 129.488 142.614 129.312 141.921 129.312C140.95 129.312 140.017 129.504 139.121 129.888V128.64C140.123 128.299 141.099 128.128 142.049 128.128C143.094 128.128 143.91 128.411 144.497 128.976C145.094 129.531 145.393 130.336 145.393 131.392V134.4ZM139.825 133.792C139.825 134.219 139.985 134.544 140.305 134.768C140.635 134.981 141.03 135.088 141.489 135.088C142.545 135.088 143.419 134.715 144.113 133.968V132.56C143.387 132.411 142.737 132.336 142.161 132.336C141.51 132.336 140.955 132.453 140.497 132.688C140.049 132.912 139.825 133.28 139.825 133.792ZM148.718 136H147.214L149.438 133.184C148.851 133.013 148.398 132.715 148.078 132.288C147.758 131.861 147.598 131.371 147.598 130.816C147.598 130.112 147.854 129.52 148.366 129.04C148.878 128.56 149.582 128.32 150.478 128.32H154.254V136H152.974V133.312H150.814L148.718 136ZM149.326 129.824C149.027 130.059 148.878 130.389 148.878 130.816C148.878 131.243 149.027 131.573 149.326 131.808C149.635 132.043 150.056 132.16 150.59 132.16H152.974V129.472H150.59C150.056 129.472 149.635 129.589 149.326 129.824ZM161.886 136H160.606V128.32H167.614V136H166.334V129.504H161.886V136ZM171.133 129.6C171.997 128.619 173.032 128.128 174.237 128.128C175.336 128.128 176.248 128.512 176.973 129.28C177.709 130.048 178.077 131.008 178.077 132.16C178.077 133.312 177.709 134.272 176.973 135.04C176.248 135.808 175.336 136.192 174.237 136.192C173.021 136.192 172.029 135.744 171.261 134.848V139.52H169.981V128.32H171.133V129.6ZM176.013 134.224C176.536 133.701 176.797 133.013 176.797 132.16C176.797 131.307 176.536 130.619 176.013 130.096C175.501 129.573 174.861 129.312 174.093 129.312C173.442 129.312 172.866 129.493 172.365 129.856C171.864 130.219 171.496 130.667 171.261 131.2V133.12C171.496 133.653 171.864 134.101 172.365 134.464C172.866 134.827 173.442 135.008 174.093 135.008C174.861 135.008 175.501 134.747 176.013 134.224ZM186.158 134.4C186.158 134.795 186.356 134.992 186.75 134.992C186.921 134.992 187.118 134.955 187.342 134.88V135.92C187.022 136.037 186.702 136.096 186.382 136.096C185.646 136.096 185.177 135.787 184.974 135.168C184.153 135.851 183.156 136.192 181.982 136.192C181.236 136.192 180.596 135.995 180.062 135.6C179.54 135.195 179.278 134.613 179.278 133.856C179.278 132.949 179.614 132.293 180.286 131.888C180.969 131.472 181.79 131.264 182.75 131.264C183.454 131.264 184.164 131.344 184.878 131.504V131.232C184.878 130.645 184.686 130.181 184.302 129.84C183.918 129.488 183.38 129.312 182.686 129.312C181.716 129.312 180.782 129.504 179.886 129.888V128.64C180.889 128.299 181.865 128.128 182.814 128.128C183.86 128.128 184.676 128.411 185.262 128.976C185.86 129.531 186.158 130.336 186.158 131.392V134.4ZM180.59 133.792C180.59 134.219 180.75 134.544 181.07 134.768C181.401 134.981 181.796 135.088 182.254 135.088C183.31 135.088 184.185 134.715 184.878 133.968V132.56C184.153 132.411 183.502 132.336 182.926 132.336C182.276 132.336 181.721 132.453 181.262 132.688C180.814 132.912 180.59 133.28 180.59 133.792ZM189.995 136H188.715V128.32H189.995V131.52H191.547L193.979 128.32H195.467L192.555 132.144L195.819 136H194.315L191.499 132.704H189.995V136ZM200.29 136H199.01V129.504H196.178V128.32H203.106V129.504H200.29V136ZM205.647 136H204.559V128.32H205.839V133.936L210.543 128.32H211.631V136H210.351V130.384L205.647 136ZM215.277 136H213.997V128.32H215.277V131.52H216.829L219.261 128.32H220.749L217.837 132.144L221.101 136H219.597L216.781 132.704H215.277V136ZM228.549 134.4C228.549 134.795 228.746 134.992 229.141 134.992C229.312 134.992 229.509 134.955 229.733 134.88V135.92C229.413 136.037 229.093 136.096 228.773 136.096C228.037 136.096 227.568 135.787 227.365 135.168C226.544 135.851 225.546 136.192 224.373 136.192C223.626 136.192 222.986 135.995 222.453 135.6C221.93 135.195 221.669 134.613 221.669 133.856C221.669 132.949 222.005 132.293 222.677 131.888C223.36 131.472 224.181 131.264 225.141 131.264C225.845 131.264 226.554 131.344 227.269 131.504V131.232C227.269 130.645 227.077 130.181 226.693 129.84C226.309 129.488 225.77 129.312 225.077 129.312C224.106 129.312 223.173 129.504 222.277 129.888V128.64C223.28 128.299 224.256 128.128 225.205 128.128C226.25 128.128 227.066 128.411 227.653 128.976C228.25 129.531 228.549 130.336 228.549 131.392V134.4ZM222.981 133.792C222.981 134.219 223.141 134.544 223.461 134.768C223.792 134.981 224.186 135.088 224.645 135.088C225.701 135.088 226.576 134.715 227.269 133.968V132.56C226.544 132.411 225.893 132.336 225.317 132.336C224.666 132.336 224.112 132.453 223.653 132.688C223.205 132.912 222.981 133.28 222.981 133.792ZM47.464 168H46.184V160.32H53.192V168H51.912V161.504H47.464V168ZM56.247 167.12C55.4363 166.395 55.031 165.408 55.031 164.16C55.031 162.912 55.4363 161.931 56.247 161.216C57.0577 160.491 58.0177 160.128 59.127 160.128C60.247 160.128 61.207 160.491 62.007 161.216C62.8177 161.931 63.223 162.912 63.223 164.16C63.223 165.408 62.8177 166.395 62.007 167.12C61.207 167.835 60.247 168.192 59.127 168.192C58.0177 168.192 57.0577 167.835 56.247 167.12ZM61.143 166.224C61.6763 165.712 61.943 165.024 61.943 164.16C61.943 163.296 61.6763 162.613 61.143 162.112C60.6097 161.6 59.9377 161.344 59.127 161.344C58.3163 161.344 57.6443 161.6 57.111 162.112C56.5777 162.613 56.311 163.296 56.311 164.16C56.311 165.024 56.5777 165.712 57.111 166.224C57.6443 166.725 58.3163 166.976 59.127 166.976C59.9377 166.976 60.6097 166.725 61.143 166.224ZM66.339 168H65.059V160.32H66.339V163.52H67.891L70.323 160.32H71.811L68.899 164.144L72.163 168H70.659L67.843 164.704H66.339V168ZM79.6115 166.4C79.6115 166.795 79.8088 166.992 80.2035 166.992C80.3742 166.992 80.5715 166.955 80.7955 166.88V167.92C80.4755 168.037 80.1555 168.096 79.8355 168.096C79.0995 168.096 78.6302 167.787 78.4275 167.168C77.6062 167.851 76.6088 168.192 75.4355 168.192C74.6888 168.192 74.0488 167.995 73.5155 167.6C72.9928 167.195 72.7315 166.613 72.7315 165.856C72.7315 164.949 73.0675 164.293 73.7395 163.888C74.4222 163.472 75.2435 163.264 76.2035 163.264C76.9075 163.264 77.6168 163.344 78.3315 163.504V163.232C78.3315 162.645 78.1395 162.181 77.7555 161.84C77.3715 161.488 76.8328 161.312 76.1395 161.312C75.1688 161.312 74.2355 161.504 73.3395 161.888V160.64C74.3422 160.299 75.3182 160.128 76.2675 160.128C77.3128 160.128 78.1288 160.411 78.7155 160.976C79.3128 161.531 79.6115 162.336 79.6115 163.392V166.4ZM74.0435 165.792C74.0435 166.219 74.2035 166.544 74.5235 166.768C74.8542 166.981 75.2488 167.088 75.7075 167.088C76.7635 167.088 77.6382 166.715 78.3315 165.968V164.56C77.6062 164.411 76.9555 164.336 76.3795 164.336C75.7288 164.336 75.1742 164.453 74.7155 164.688C74.2675 164.912 74.0435 165.28 74.0435 165.792ZM87.9124 165.936C87.9124 166.651 87.603 167.205 86.9844 167.6C86.3764 167.995 85.5337 168.192 84.4564 168.192C83.379 168.192 82.435 167.995 81.6244 167.6V166.384C82.403 166.8 83.2937 167.008 84.2964 167.008C85.8537 167.008 86.6324 166.603 86.6324 165.792C86.6324 165.056 86.067 164.688 84.9364 164.688H83.2564V163.504H84.9364C85.9604 163.504 86.4724 163.173 86.4724 162.512C86.4724 162.107 86.2804 161.803 85.8964 161.6C85.5124 161.397 85.0004 161.296 84.3604 161.296C83.4324 161.296 82.563 161.499 81.7524 161.904V160.704C82.6164 160.309 83.5337 160.112 84.5044 160.112C85.5497 160.112 86.3497 160.315 86.9044 160.72C87.4697 161.115 87.7524 161.653 87.7524 162.336C87.7524 162.795 87.6244 163.173 87.3684 163.472C87.1124 163.771 86.7657 163.968 86.3284 164.064C86.787 164.181 87.1657 164.405 87.4644 164.736C87.763 165.067 87.9124 165.467 87.9124 165.936ZM93.4414 168H89.7934V160.32H91.0734V163.008H93.4414C94.3587 163.008 95.084 163.243 95.6174 163.712C96.1507 164.181 96.4174 164.779 96.4174 165.504C96.4174 166.229 96.1507 166.827 95.6174 167.296C95.084 167.765 94.3587 168 93.4414 168ZM91.0734 164.16V166.848H93.2814C93.8574 166.848 94.3054 166.736 94.6254 166.512C94.956 166.288 95.1214 165.952 95.1214 165.504C95.1214 165.056 94.956 164.72 94.6254 164.496C94.3054 164.272 93.8574 164.16 93.2814 164.16H91.0734ZM99.1854 168H97.9054V160.32H99.1854V168ZM105.895 168H101.559V160.32H105.767C106.46 160.32 107.026 160.501 107.463 160.864C107.911 161.227 108.135 161.739 108.135 162.4C108.135 162.784 108.039 163.131 107.847 163.44C107.655 163.749 107.41 163.968 107.111 164.096C107.463 164.213 107.762 164.427 108.007 164.736C108.252 165.045 108.375 165.424 108.375 165.872C108.375 166.523 108.162 167.04 107.735 167.424C107.319 167.808 106.706 168 105.895 168ZM102.839 164.672V166.88H105.719C106.636 166.88 107.095 166.517 107.095 165.792C107.095 165.045 106.652 164.672 105.767 164.672H102.839ZM102.839 161.44V163.568H105.639C106.439 163.568 106.839 163.221 106.839 162.528C106.839 162.133 106.722 161.856 106.487 161.696C106.252 161.525 105.97 161.44 105.639 161.44H102.839ZM116.565 166.4C116.565 166.795 116.762 166.992 117.157 166.992C117.327 166.992 117.525 166.955 117.749 166.88V167.92C117.429 168.037 117.109 168.096 116.789 168.096C116.053 168.096 115.583 167.787 115.381 167.168C114.559 167.851 113.562 168.192 112.389 168.192C111.642 168.192 111.002 167.995 110.469 167.6C109.946 167.195 109.685 166.613 109.685 165.856C109.685 164.949 110.021 164.293 110.693 163.888C111.375 163.472 112.197 163.264 113.157 163.264C113.861 163.264 114.57 163.344 115.285 163.504V163.232C115.285 162.645 115.093 162.181 114.709 161.84C114.325 161.488 113.786 161.312 113.093 161.312C112.122 161.312 111.189 161.504 110.293 161.888V160.64C111.295 160.299 112.271 160.128 113.221 160.128C114.266 160.128 115.082 160.411 115.669 160.976C116.266 161.531 116.565 162.336 116.565 163.392V166.4ZM110.997 165.792C110.997 166.219 111.157 166.544 111.477 166.768C111.807 166.981 112.202 167.088 112.661 167.088C113.717 167.088 114.591 166.715 115.285 165.968V164.56C114.559 164.411 113.909 164.336 113.333 164.336C112.682 164.336 112.127 164.453 111.669 164.688C111.221 164.912 110.997 165.28 110.997 165.792ZM118.594 164.16C118.594 162.901 118.978 161.915 119.746 161.2C120.524 160.485 121.415 160.128 122.418 160.128C123.356 160.128 124.13 160.363 124.738 160.832C125.356 161.301 125.762 161.883 125.954 162.576C126.146 163.259 126.156 163.973 125.986 164.72H119.874C119.948 165.477 120.284 166.048 120.882 166.432C121.479 166.816 122.199 167.008 123.042 167.008C123.98 167.008 124.823 166.8 125.57 166.384V167.632C124.855 168.005 123.948 168.192 122.85 168.192C121.634 168.192 120.62 167.845 119.81 167.152C118.999 166.459 118.594 165.461 118.594 164.16ZM124.85 163.6C124.882 163.376 124.866 163.141 124.802 162.896C124.738 162.651 124.62 162.405 124.45 162.16C124.29 161.915 124.039 161.712 123.698 161.552C123.356 161.392 122.956 161.312 122.498 161.312C121.804 161.312 121.202 161.515 120.69 161.92C120.188 162.325 119.916 162.885 119.874 163.6H124.85ZM130.9 168H129.62V161.504H126.788V160.32H133.716V161.504H130.9V168ZM134.501 170.4H133.461L134.341 166.72H135.701L134.501 170.4ZM52.184 200H50.904V197.328C50.2107 197.595 49.448 197.728 48.616 197.728C47.6987 197.728 46.9733 197.499 46.44 197.04C45.9173 196.581 45.656 195.893 45.656 194.976V192.32H46.936V194.88C46.936 195.499 47.1067 195.931 47.448 196.176C47.8 196.421 48.3173 196.544 49 196.544C49.7147 196.544 50.3493 196.432 50.904 196.208V192.32H52.184V200ZM57.759 200H56.479V193.504H53.647V192.32H60.575V193.504H57.759V200ZM62.4658 199.12C61.6551 198.395 61.2498 197.408 61.2498 196.16C61.2498 194.912 61.6551 193.931 62.4658 193.216C63.2764 192.491 64.2364 192.128 65.3458 192.128C66.4658 192.128 67.4258 192.491 68.2258 193.216C69.0364 193.931 69.4418 194.912 69.4418 196.16C69.4418 197.408 69.0364 198.395 68.2258 199.12C67.4258 199.835 66.4658 200.192 65.3458 200.192C64.2364 200.192 63.2764 199.835 62.4658 199.12ZM67.3618 198.224C67.8951 197.712 68.1618 197.024 68.1618 196.16C68.1618 195.296 67.8951 194.613 67.3618 194.112C66.8284 193.6 66.1564 193.344 65.3458 193.344C64.5351 193.344 63.8631 193.6 63.3298 194.112C62.7964 194.613 62.5298 195.296 62.5298 196.16C62.5298 197.024 62.7964 197.712 63.3298 198.224C63.8631 198.725 64.5351 198.976 65.3458 198.976C66.1564 198.976 66.8284 198.725 67.3618 198.224ZM75.7421 202.08H74.4941V198.848H75.5181C76.4248 197.248 76.8621 195.072 76.8301 192.32H82.5581V198.848H83.6781V202.08H82.4301V200H75.7421V202.08ZM78.0621 193.472C78.0088 195.573 77.6248 197.365 76.9101 198.848H81.2781V193.472H78.0621ZM91.6271 198.4C91.6271 198.795 91.8245 198.992 92.2191 198.992C92.3898 198.992 92.5871 198.955 92.8111 198.88V199.92C92.4911 200.037 92.1711 200.096 91.8511 200.096C91.1151 200.096 90.6458 199.787 90.4431 199.168C89.6218 199.851 88.6245 200.192 87.4511 200.192C86.7045 200.192 86.0645 199.995 85.5311 199.6C85.0085 199.195 84.7471 198.613 84.7471 197.856C84.7471 196.949 85.0831 196.293 85.7551 195.888C86.4378 195.472 87.2591 195.264 88.2191 195.264C88.9231 195.264 89.6325 195.344 90.3471 195.504V195.232C90.3471 194.645 90.1551 194.181 89.7711 193.84C89.3871 193.488 88.8485 193.312 88.1551 193.312C87.1845 193.312 86.2511 193.504 85.3551 193.888V192.64C86.3578 192.299 87.3338 192.128 88.2831 192.128C89.3285 192.128 90.1445 192.411 90.7311 192.976C91.3285 193.531 91.6271 194.336 91.6271 195.392V198.4ZM86.0591 197.792C86.0591 198.219 86.2191 198.544 86.5391 198.768C86.8698 198.981 87.2645 199.088 87.7231 199.088C88.7791 199.088 89.6538 198.715 90.3471 197.968V196.56C89.6218 196.411 88.9711 196.336 88.3951 196.336C87.7445 196.336 87.1898 196.453 86.7311 196.688C86.2831 196.912 86.0591 197.28 86.0591 197.792ZM96.904 193.504C96.8507 194.347 96.7867 195.083 96.712 195.712C96.6373 196.341 96.5307 196.949 96.392 197.536C96.2533 198.112 96.0827 198.581 95.88 198.944C95.688 199.307 95.4427 199.595 95.144 199.808C94.8453 200.021 94.504 200.128 94.12 200.128C93.8107 200.128 93.5013 200.069 93.192 199.952V198.944C93.3627 199.008 93.5333 199.04 93.704 199.04C94.344 199.04 94.808 198.48 95.096 197.36C95.3947 196.229 95.5813 194.549 95.656 192.32H101.304V200H100.024V193.504H96.904ZM107.316 200H103.668V192.32H104.948V195.008H107.316C108.234 195.008 108.959 195.243 109.492 195.712C110.026 196.181 110.292 196.779 110.292 197.504C110.292 198.229 110.026 198.827 109.492 199.296C108.959 199.765 108.234 200 107.316 200ZM104.948 196.16V198.848H107.156C107.732 198.848 108.18 198.736 108.5 198.512C108.831 198.288 108.996 197.952 108.996 197.504C108.996 197.056 108.831 196.72 108.5 196.496C108.18 196.272 107.732 196.16 107.156 196.16H104.948ZM113.214 200H111.934V192.32H113.214V195.568H117.662V192.32H118.942V200H117.662V196.752H113.214V200ZM120.781 196.16C120.781 194.901 121.165 193.915 121.933 193.2C122.712 192.485 123.602 192.128 124.605 192.128C125.544 192.128 126.317 192.363 126.925 192.832C127.544 193.301 127.949 193.883 128.141 194.576C128.333 195.259 128.344 195.973 128.173 196.72H122.061C122.136 197.477 122.472 198.048 123.069 198.432C123.666 198.816 124.386 199.008 125.229 199.008C126.168 199.008 127.01 198.8 127.757 198.384V199.632C127.042 200.005 126.136 200.192 125.037 200.192C123.821 200.192 122.808 199.845 121.997 199.152C121.186 198.459 120.781 197.461 120.781 196.16ZM127.037 195.6C127.069 195.376 127.053 195.141 126.989 194.896C126.925 194.651 126.808 194.405 126.637 194.16C126.477 193.915 126.226 193.712 125.885 193.552C125.544 193.392 125.144 193.312 124.685 193.312C123.992 193.312 123.389 193.515 122.877 193.92C122.376 194.325 122.104 194.885 122.061 195.6H127.037ZM135.819 190.464C135.19 190.912 134.443 191.136 133.579 191.136C132.715 191.136 131.969 190.912 131.339 190.464V189.312C132.054 189.781 132.801 190.016 133.579 190.016C134.358 190.016 135.105 189.781 135.819 189.312V190.464ZM131.131 200H130.043V192.32H131.323V197.936L136.027 192.32H137.115V200H135.835V194.384L131.131 200ZM150.201 200H139.481V192.32H140.761V198.816H144.201V192.32H145.481V198.816H148.921V192.32H150.201V200ZM152.047 196.16C152.047 194.901 152.431 193.915 153.199 193.2C153.977 192.485 154.868 192.128 155.871 192.128C156.809 192.128 157.583 192.363 158.191 192.832C158.809 193.301 159.215 193.883 159.407 194.576C159.599 195.259 159.609 195.973 159.439 196.72H153.327C153.401 197.477 153.737 198.048 154.335 198.432C154.932 198.816 155.652 199.008 156.495 199.008C157.433 199.008 158.276 198.8 159.023 198.384V199.632C158.308 200.005 157.401 200.192 156.303 200.192C155.087 200.192 154.073 199.845 153.263 199.152C152.452 198.459 152.047 197.461 152.047 196.16ZM158.303 195.6C158.335 195.376 158.319 195.141 158.255 194.896C158.191 194.651 158.073 194.405 157.903 194.16C157.743 193.915 157.492 193.712 157.151 193.552C156.809 193.392 156.409 193.312 155.951 193.312C155.257 193.312 154.655 193.515 154.143 193.92C153.641 194.325 153.369 194.885 153.327 195.6H158.303ZM160.781 196.16C160.781 194.901 161.165 193.915 161.933 193.2C162.712 192.485 163.602 192.128 164.605 192.128C165.544 192.128 166.317 192.363 166.925 192.832C167.544 193.301 167.949 193.883 168.141 194.576C168.333 195.259 168.344 195.973 168.173 196.72H162.061C162.136 197.477 162.472 198.048 163.069 198.432C163.666 198.816 164.386 199.008 165.229 199.008C166.168 199.008 167.01 198.8 167.757 198.384V199.632C167.042 200.005 166.136 200.192 165.037 200.192C163.821 200.192 162.808 199.845 161.997 199.152C161.186 198.459 160.781 197.461 160.781 196.16ZM167.037 195.6C167.069 195.376 167.053 195.141 166.989 194.896C166.925 194.651 166.808 194.405 166.637 194.16C166.477 193.915 166.226 193.712 165.885 193.552C165.544 193.392 165.144 193.312 164.685 193.312C163.992 193.312 163.389 193.515 162.877 193.92C162.376 194.325 162.104 194.885 162.061 195.6H167.037ZM47.336 225.6C48.2 224.619 49.2347 224.128 50.44 224.128C51.5387 224.128 52.4507 224.512 53.176 225.28C53.912 226.048 54.28 227.008 54.28 228.16C54.28 229.312 53.912 230.272 53.176 231.04C52.4507 231.808 51.5387 232.192 50.44 232.192C49.224 232.192 48.232 231.744 47.464 230.848V235.52H46.184V224.32H47.336V225.6ZM52.216 230.224C52.7387 229.701 53 229.013 53 228.16C53 227.307 52.7387 226.619 52.216 226.096C51.704 225.573 51.064 225.312 50.296 225.312C49.6453 225.312 49.0693 225.493 48.568 225.856C48.0667 226.219 47.6987 226.667 47.464 227.2V229.12C47.6987 229.653 48.0667 230.101 48.568 230.464C49.0693 230.827 49.6453 231.008 50.296 231.008C51.064 231.008 51.704 230.747 52.216 230.224ZM62.3615 230.4C62.3615 230.795 62.5588 230.992 62.9535 230.992C63.1242 230.992 63.3215 230.955 63.5455 230.88V231.92C63.2255 232.037 62.9055 232.096 62.5855 232.096C61.8495 232.096 61.3802 231.787 61.1775 231.168C60.3562 231.851 59.3588 232.192 58.1855 232.192C57.4388 232.192 56.7988 231.995 56.2655 231.6C55.7428 231.195 55.4815 230.613 55.4815 229.856C55.4815 228.949 55.8175 228.293 56.4895 227.888C57.1722 227.472 57.9935 227.264 58.9535 227.264C59.6575 227.264 60.3668 227.344 61.0815 227.504V227.232C61.0815 226.645 60.8895 226.181 60.5055 225.84C60.1215 225.488 59.5828 225.312 58.8895 225.312C57.9188 225.312 56.9855 225.504 56.0895 225.888V224.64C57.0922 224.299 58.0682 224.128 59.0175 224.128C60.0628 224.128 60.8788 224.411 61.4655 224.976C62.0628 225.531 62.3615 226.336 62.3615 227.392V230.4ZM56.7935 229.792C56.7935 230.219 56.9535 230.544 57.2735 230.768C57.6042 230.981 57.9988 231.088 58.4575 231.088C59.5135 231.088 60.3882 230.715 61.0815 229.968V228.56C60.3562 228.411 59.7055 228.336 59.1295 228.336C58.4788 228.336 57.9242 228.453 57.4655 228.688C57.0175 228.912 56.7935 229.28 56.7935 229.792ZM70.6624 229.936C70.6624 230.651 70.353 231.205 69.7344 231.6C69.1264 231.995 68.2837 232.192 67.2064 232.192C66.129 232.192 65.185 231.995 64.3744 231.6V230.384C65.153 230.8 66.0437 231.008 67.0464 231.008C68.6037 231.008 69.3824 230.603 69.3824 229.792C69.3824 229.056 68.817 228.688 67.6864 228.688H66.0064V227.504H67.6864C68.7104 227.504 69.2224 227.173 69.2224 226.512C69.2224 226.107 69.0304 225.803 68.6464 225.6C68.2624 225.397 67.7504 225.296 67.1104 225.296C66.1824 225.296 65.313 225.499 64.5024 225.904V224.704C65.3664 224.309 66.2837 224.112 67.2544 224.112C68.2997 224.112 69.0997 224.315 69.6544 224.72C70.2197 225.115 70.5024 225.653 70.5024 226.336C70.5024 226.795 70.3744 227.173 70.1184 227.472C69.8624 227.771 69.5157 227.968 69.0784 228.064C69.537 228.181 69.9157 228.405 70.2144 228.736C70.513 229.067 70.6624 229.467 70.6624 229.936ZM76.8794 232H72.5434V224.32H76.7514C77.4447 224.32 78.01 224.501 78.4474 224.864C78.8954 225.227 79.1194 225.739 79.1194 226.4C79.1194 226.784 79.0234 227.131 78.8314 227.44C78.6394 227.749 78.394 227.968 78.0954 228.096C78.4474 228.213 78.746 228.427 78.9914 228.736C79.2367 229.045 79.3594 229.424 79.3594 229.872C79.3594 230.523 79.146 231.04 78.7194 231.424C78.3034 231.808 77.69 232 76.8794 232ZM73.8234 228.672V230.88H76.7034C77.6207 230.88 78.0794 230.517 78.0794 229.792C78.0794 229.045 77.6367 228.672 76.7514 228.672H73.8234ZM73.8234 225.44V227.568H76.6234C77.4234 227.568 77.8234 227.221 77.8234 226.528C77.8234 226.133 77.706 225.856 77.4714 225.696C77.2367 225.525 76.954 225.44 76.6234 225.44H73.8234ZM82.397 232H81.309V224.32H82.589V229.936L87.293 224.32H88.381V232H87.101V226.384L82.397 232ZM93.9465 232H92.6665V225.504H89.8345V224.32H96.7625V225.504H93.9465V232ZM99.3033 232H98.2153V224.32H99.4953V229.936L104.199 224.32H105.287V232H104.007V226.384L99.3033 232ZM107.125 228.16C107.125 226.901 107.509 225.915 108.277 225.2C109.055 224.485 109.946 224.128 110.949 224.128C111.887 224.128 112.661 224.363 113.269 224.832C113.887 225.301 114.293 225.883 114.485 226.576C114.677 227.259 114.687 227.973 114.517 228.72H108.405C108.479 229.477 108.815 230.048 109.413 230.432C110.01 230.816 110.73 231.008 111.573 231.008C112.511 231.008 113.354 230.8 114.101 230.384V231.632C113.386 232.005 112.479 232.192 111.381 232.192C110.165 232.192 109.151 231.845 108.341 231.152C107.53 230.459 107.125 229.461 107.125 228.16ZM113.381 227.6C113.413 227.376 113.397 227.141 113.333 226.896C113.269 226.651 113.151 226.405 112.981 226.16C112.821 225.915 112.57 225.712 112.229 225.552C111.887 225.392 111.487 225.312 111.029 225.312C110.335 225.312 109.733 225.515 109.221 225.92C108.719 226.325 108.447 226.885 108.405 227.6H113.381ZM121.524 225.6C122.388 224.619 123.422 224.128 124.628 224.128C125.726 224.128 126.638 224.512 127.364 225.28C128.1 226.048 128.468 227.008 128.468 228.16C128.468 229.312 128.1 230.272 127.364 231.04C126.638 231.808 125.726 232.192 124.628 232.192C123.412 232.192 122.42 231.744 121.652 230.848V235.52H120.372V224.32H121.524V225.6ZM126.404 230.224C126.926 229.701 127.188 229.013 127.188 228.16C127.188 227.307 126.926 226.619 126.404 226.096C125.892 225.573 125.252 225.312 124.484 225.312C123.833 225.312 123.257 225.493 122.756 225.856C122.254 226.219 121.886 226.667 121.652 227.2V229.12C121.886 229.653 122.254 230.101 122.756 230.464C123.257 230.827 123.833 231.008 124.484 231.008C125.252 231.008 125.892 230.747 126.404 230.224ZM136.549 230.4C136.549 230.795 136.746 230.992 137.141 230.992C137.312 230.992 137.509 230.955 137.733 230.88V231.92C137.413 232.037 137.093 232.096 136.773 232.096C136.037 232.096 135.568 231.787 135.365 231.168C134.544 231.851 133.546 232.192 132.373 232.192C131.626 232.192 130.986 231.995 130.453 231.6C129.93 231.195 129.669 230.613 129.669 229.856C129.669 228.949 130.005 228.293 130.677 227.888C131.36 227.472 132.181 227.264 133.141 227.264C133.845 227.264 134.554 227.344 135.269 227.504V227.232C135.269 226.645 135.077 226.181 134.693 225.84C134.309 225.488 133.77 225.312 133.077 225.312C132.106 225.312 131.173 225.504 130.277 225.888V224.64C131.28 224.299 132.256 224.128 133.205 224.128C134.25 224.128 135.066 224.411 135.653 224.976C136.25 225.531 136.549 226.336 136.549 227.392V230.4ZM130.981 229.792C130.981 230.219 131.141 230.544 131.461 230.768C131.792 230.981 132.186 231.088 132.645 231.088C133.701 231.088 134.576 230.715 135.269 229.968V228.56C134.544 228.411 133.893 228.336 133.317 228.336C132.666 228.336 132.112 228.453 131.653 228.688C131.205 228.912 130.981 229.28 130.981 229.792ZM144.85 229.936C144.85 230.651 144.541 231.205 143.922 231.6C143.314 231.995 142.471 232.192 141.394 232.192C140.317 232.192 139.373 231.995 138.562 231.6V230.384C139.341 230.8 140.231 231.008 141.234 231.008C142.791 231.008 143.57 230.603 143.57 229.792C143.57 229.056 143.005 228.688 141.874 228.688H140.194V227.504H141.874C142.898 227.504 143.41 227.173 143.41 226.512C143.41 226.107 143.218 225.803 142.834 225.6C142.45 225.397 141.938 225.296 141.298 225.296C140.37 225.296 139.501 225.499 138.69 225.904V224.704C139.554 224.309 140.471 224.112 141.442 224.112C142.487 224.112 143.287 224.315 143.842 224.72C144.407 225.115 144.69 225.653 144.69 226.336C144.69 226.795 144.562 227.173 144.306 227.472C144.05 227.771 143.703 227.968 143.266 228.064C143.725 228.181 144.103 228.405 144.402 228.736C144.701 229.067 144.85 229.467 144.85 229.936ZM149.451 225.504C149.398 226.347 149.334 227.083 149.259 227.712C149.184 228.341 149.078 228.949 148.939 229.536C148.8 230.112 148.63 230.581 148.427 230.944C148.235 231.307 147.99 231.595 147.691 231.808C147.392 232.021 147.051 232.128 146.667 232.128C146.358 232.128 146.048 232.069 145.739 231.952V230.944C145.91 231.008 146.08 231.04 146.251 231.04C146.891 231.04 147.355 230.48 147.643 229.36C147.942 228.229 148.128 226.549 148.203 224.32H153.851V232H152.571V225.504H149.451ZM157.303 232H156.215V224.32H157.495V229.936L162.199 224.32H163.287V232H162.007V226.384L157.303 232ZM171.653 232H170.373V229.328C169.679 229.595 168.917 229.728 168.085 229.728C167.167 229.728 166.442 229.499 165.909 229.04C165.386 228.581 165.125 227.893 165.125 226.976V224.32H166.405V226.88C166.405 227.499 166.575 227.931 166.917 228.176C167.269 228.421 167.786 228.544 168.469 228.544C169.183 228.544 169.818 228.432 170.373 228.208V224.32H171.653V232ZM175.308 232H174.028V224.32H175.308V227.568H179.756V224.32H181.036V232H179.756V228.752H175.308V232ZM187.051 232H183.403V224.32H184.683V227.008H187.051C187.968 227.008 188.693 227.243 189.227 227.712C189.76 228.181 190.027 228.779 190.027 229.504C190.027 230.229 189.76 230.827 189.227 231.296C188.693 231.765 187.968 232 187.051 232ZM184.683 228.16V230.848H186.891C187.467 230.848 187.915 230.736 188.235 230.512C188.565 230.288 188.731 229.952 188.731 229.504C188.731 229.056 188.565 228.72 188.235 228.496C187.915 228.272 187.467 228.16 186.891 228.16H184.683ZM192.795 232H191.515V224.32H192.795V232ZM199.984 224.32H201.456L198.64 228.048L201.616 232H200.144L197.904 228.96L195.648 232H194.176L197.168 228.048L194.336 224.32H195.808L197.904 227.152L199.984 224.32Z" fill="black"/>
<path d="M105.509 101.553H51.4906C47.9182 101.553 45 98.691 45 95.159V50.841C45 47.309 47.9182 44.4473 51.4906 44.4473H86.9404C87.9611 44.4473 88.7855 45.2594 88.7855 46.2648C88.7855 47.2703 87.9611 48.0824 86.9404 48.0824H51.4906C49.9465 48.0824 48.6902 49.3199 48.6902 50.841V95.159C48.6902 96.6801 49.9465 97.9176 51.4906 97.9176H105.509C107.054 97.9176 108.31 96.6801 108.31 95.159V50.841C108.31 49.3199 107.054 48.0824 105.509 48.0824H97.5793C96.5586 48.0824 95.7342 47.2703 95.7342 46.2648C95.7342 45.2594 96.5586 44.4473 97.5793 44.4473H105.509C109.095 44.4473 112 47.3219 112 50.841V95.159C112 98.691 109.082 101.553 105.509 101.553Z" fill="#2D527C"/>
<path d="M98.8748 93.5348H63.1371C62.1164 93.5348 61.292 92.7227 61.292 91.7172C61.292 90.7117 62.1164 89.8996 63.1371 89.8996H98.8748C99.5815 89.8996 100.157 89.3324 100.157 88.6363V57.3766C100.157 56.6805 99.5815 56.1133 98.8748 56.1133H63.1371C62.1164 56.1133 61.292 55.3012 61.292 54.2957C61.292 53.2902 62.1164 52.4781 63.1371 52.4781H98.8748C101.623 52.4781 103.861 54.6824 103.861 57.3894V88.6363C103.861 91.3305 101.623 93.5348 98.8748 93.5348Z" fill="#2D527C"/>
<path d="M54.9846 93.5348C53.9639 93.5348 53.1395 92.7227 53.1395 91.7172V54.2828C53.1395 53.2774 53.9639 52.4652 54.9846 52.4652C56.0053 52.4652 56.8297 53.2774 56.8297 54.2828V91.7172C56.8428 92.7227 56.0053 93.5348 54.9846 93.5348Z" fill="#2D527C"/>
<path d="M87.6733 87.502C79.56 87.502 72.9516 80.9922 72.9516 73C72.9516 65.0078 79.56 58.498 87.6733 58.498C95.7865 58.498 102.395 65.0078 102.395 73C102.395 80.9922 95.7865 87.502 87.6733 87.502ZM87.6733 62.1332C81.5883 62.1332 76.6418 67.0059 76.6418 73C76.6418 78.9941 81.5883 83.8668 87.6733 83.8668C93.7582 83.8668 98.7047 78.9941 98.7047 73C98.7047 67.0059 93.7582 62.1332 87.6733 62.1332ZM87.6733 79.5613C83.9961 79.5613 81.0125 76.6223 81.0125 73C81.0125 69.3777 83.9961 66.4387 87.6733 66.4387C91.3504 66.4387 94.334 69.3777 94.334 73C94.334 76.6223 91.3504 79.5613 87.6733 79.5613ZM87.6733 70.0738C86.0375 70.0738 84.7027 71.3887 84.7027 73C84.7027 74.6113 86.0375 75.9262 87.6733 75.9262C89.309 75.9262 90.6438 74.6113 90.6438 73C90.6438 71.3887 89.309 70.0738 87.6733 70.0738Z" fill="#F0BF5F"/>
<path d="M63.124 79.7805H54.9845V85.6715H63.124V79.7805Z" fill="#CEE8FA"/>
<path d="M63.1372 87.4891H54.9846C53.9639 87.4891 53.1395 86.677 53.1395 85.6715V79.7805C53.1395 78.775 53.9639 77.9629 54.9846 77.9629H63.1241C64.1448 77.9629 64.9692 78.775 64.9692 79.7805V85.6715C64.9823 86.677 64.1579 87.4891 63.1372 87.4891ZM56.8428 83.8539H61.292V81.598H56.8428V83.8539Z" fill="#2D527C"/>
<path d="M63.124 60.3285H54.9845V66.2195H63.124V60.3285Z" fill="#CEE8FA"/>
<path d="M63.1372 68.0371H54.9846C53.9639 68.0371 53.1395 67.225 53.1395 66.2195V60.3285C53.1395 59.323 53.9639 58.5109 54.9846 58.5109H63.1241C64.1448 58.5109 64.9692 59.323 64.9692 60.3285V66.2195C64.9823 67.225 64.1579 68.0371 63.1372 68.0371ZM56.8428 64.4019H61.292V62.1461H56.8428V64.4019Z" fill="#2D527C"/>
<path d="M78.9842 83.377C78.5131 83.377 78.042 83.1965 77.6756 82.8484C76.9559 82.1395 76.9559 80.9793 77.6756 80.2703L82.9623 75.0625C83.6821 74.3535 84.8598 74.3535 85.5795 75.0625C86.2993 75.7715 86.2993 76.9316 85.5795 77.6406L80.2928 82.8484C79.9264 83.1965 79.4553 83.377 78.9842 83.377Z" fill="#F0BF5F"/>
<path d="M91.4159 71.1308C90.9448 71.1308 90.4737 70.9504 90.1073 70.6023C89.3875 69.8933 89.3875 68.7332 90.1073 68.0242L95.0537 63.1516C95.7735 62.4426 96.9512 62.4426 97.6709 63.1516C98.3907 63.8605 98.3907 65.0207 97.6709 65.7297L92.7245 70.6023C92.3711 70.9504 91.887 71.1308 91.4159 71.1308Z" fill="#F0BF5F"/>
<path d="M83.8391 71.0406C83.368 71.0406 82.8969 70.8601 82.5305 70.5121L77.6756 65.7297C76.9559 65.0207 76.9559 63.8605 77.6756 63.1516C78.3954 62.4426 79.5731 62.4426 80.2928 63.1516L85.1477 67.934C85.8674 68.643 85.8674 69.8031 85.1477 70.5121C84.7944 70.873 84.3102 71.0406 83.8391 71.0406Z" fill="#F0BF5F"/>
<path d="M96.3624 83.3769C95.8913 83.3769 95.4202 83.1964 95.0538 82.8484L90.1335 78.0015C89.4137 77.2925 89.4137 76.1324 90.1335 75.4234C90.8532 74.7144 92.0309 74.7144 92.7506 75.4234L97.671 80.2703C98.3907 80.9793 98.3907 82.1394 97.671 82.8484C97.3045 83.1964 96.8335 83.3769 96.3624 83.3769Z" fill="#F0BF5F"/>
</svg>
